<svg xmlns="http://www.w3.org/2000/svg" viewBox="0 0 54 88.0022"><title>blue-Asset 1</title><g id="Layer_2" data-name="Layer 2"><g id="Layer_1-2" data-name="Layer 1"><path d="M13.8125.0022a2.07217,2.07217,0,0,0-1.8125,2v10a2.07851,2.07851,0,0,0,2,2h1v22.875a27.00007,27.00007,0,1,0,24,0V14.0022h1a2.07851,2.07851,0,0,0,2-2v-10a2.07851,2.07851,0,0,0-2-2H14Q13.90633-.0022,13.8125.0022Zm2.1875,4H38v6H16Zm3,10H35V38.096a2.04892,2.04892,0,0,0,1.1875,1.84375A23.00441,23.00441,0,0,1,49.90625,59.0022H4.09375A23.00441,23.00441,0,0,1,17.8125,39.9397,2.04891,2.04891,0,0,0,19,38.096V35.0022h4a2.0002,2.0002,0,1,0,0-4H19v-3h4a2.0002,2.0002,0,1,0,0-4H19v-3h4a2.0002,2.0002,0,1,0,0-4H19Zm-14.90625,49h45.8125a22.99277,22.99277,0,0,1-45.8125,0Zm6.09375,3a2.09877,2.09877,0,0,0-1.625,2.8125A20.05223,20.05223,0,0,0,27,81.0022a2.0002,2.0002,0,1,0,0-4,15.9733,15.9733,0,0,1-14.71875-9.75,2.05264,2.05264,0,0,0-1.90625-1.25Q10.28132,65.99785,10.1875,66.0022Z"/></g></g></svg>